<?xml version="1.0" encoding="utf-8"?>
<!-- Generator: Adobe Illustrator 27.0.1, SVG Export Plug-In . SVG Version: 6.00 Build 0)  -->
<svg version="1.1" id="Layer_1" xmlns="http://www.w3.org/2000/svg" xmlns:xlink="http://www.w3.org/1999/xlink" x="0px" y="0px"
	 viewBox="0 0 1270.2 431" style="enable-background:new 0 0 1270.2 431;" xml:space="preserve">
<style type="text/css">
	.st0{fill:#5700AF;}
	.st1{fill:#BC99DF;}
	.st2{fill:#1D1D1B;}
	.st3{fill:#FF6164;}
	.st4{fill:#F9F9F9;}
	.st5{fill:#FFA100;}
	.st6{fill:#DF3705;}
</style>
<g>
	<path class="st0" d="M312,171.9v50.2c-27.8,0-50.4-22.5-50.4-50.2c0-27.8,22.6-50.4,50.4-50.4h75.8l-25.6,50.4H312z"/>
	<path class="st6" d="M312,222.1h50.2v-50.2c27.8,0,50.4,22.5,50.4,50.2c0,27.8-22.6,50.4-50.4,50.4h-73.1L312,222.1z"/>
	<path d="M463.4,272.8l12.7-27.3h46.1c24.1,0,29.9-7.5,29.9-19.6c0-11.1-7.6-19.6-24.3-19.6h-23c-22.1,0-39.5-17.7-39.5-43.2
		c0-27.7,21.6-42.3,49.7-42.3h50.4l-14,25.2h-29.6c-21,0.3-26.7,7.3-26.7,17.1c0,10.5,8.5,16.3,21.4,16.3h18.6
		c23.5,0,44.8,14.5,44.8,46.5c0,10.3-2.2,18.9-6.6,25.9c-8.8,14.1-26.5,20.7-47.9,20.8L463.4,272.8z"/>
	<path d="M691.1,272.8l8.9-22.8h33.6c15.9,0,19.8-2,19.8-10.9c0-7.8-5.2-9.1-16-9.1h-16c-17.6,0-28.4-10.4-28.4-31.4
		c0-7.3,1.9-13.4,5.6-18.4c7.4-10.1,16.9-13,29.9-13H771l-9.7,21.4h-28.1c-10.7,0.1-15.3,2.8-15.3,9.1c0,6.9,3.6,10.3,11.6,10.3h13
		c20.7,0,34,12,34,32.3c0,7.2-1.7,13.2-5.1,18.1c-6.9,9.8-18.5,14.4-35.7,14.5L691.1,272.8z"/>
	<polygon points="817.9,110.3 817.9,209.6 856.2,167.2 888.9,167.2 851.2,206.4 887,272.9 857.2,272.9 832.5,226.3 817.9,243.9 
		817.9,272.9 791.4,272.9 791.4,134.9 816.9,110.3 	"/>
	<path d="M903.5,167.2H930v105.7h-26.5V167.2z M901.7,116.3l30,0.1v29.4l-30-0.1V116.3z"/>
	<polygon points="1008.6,189 988.4,189 988.4,272.9 961.9,272.9 961.9,189 941.8,189 941.8,167.2 961.9,167.2 961.9,139.5 
		988.4,139.5 988.4,167.2 1008.6,167.2 	"/>
	<path d="M660.5,167.2l-26,74.2l-25-74.2h-30.1l42.3,105.2c-1.8,4.2-3.9,8.2-6.4,12c-2.5,3.7-6,6.6-10.5,8.5
		c-6.3,2.7-13.5,4-21.9,3.9l-9.3,23c7.5,1.5,17.7,0.7,30.7-2.2c8.5-1.9,16.4-6,23.6-12.3c7.3-6.3,15.1-20.1,23.6-41.6l38.2-96.7
		H660.5z"/>
</g>
</svg>
